<?xml version="1.0" encoding="UTF-8"?>
<svg id="Layer_1" xmlns="http://www.w3.org/2000/svg" version="1.1" viewBox="0 0 815 114">
  <!-- Generator: Adobe Illustrator 29.8.4, SVG Export Plug-In . SVG Version: 2.1.1 Build 6)  -->
  <defs>
    <style>
      .st0 {
        fill: #fefefe;
      }
    </style>
  </defs>
  <path class="st0" d="M65,0c5.54,3.28,6.37,8.93,9.5,13.98,6.37-5.25,17.54-7.96,22.28.74.81,1.49.72,4.09,1.47,5.03,3,3.74,10.65.72,8.69,12.7-2.2,13.4-26.82,7.06-34.99,11-3.27,1.57-14.4,12.97-16.77,16.23-8.51,11.7-5.67,23.9-5.16,37.33,2.78-2.93,7.56-9.22,8.51-12.97,2.06-8.08-5.17-23.05,6.1-28.9,8.02-4.16,9.93,3.02,14.64,5.1,5.75,2.54,13.32.46,13.4,10.08.14,17.25-21.18,12.28-28.7,20.15-5.84,6.1-7.25,18.02-13.96,23.54h-4l-2.48-.8c-1.67-8.94-4.82-16.9-9.44-23.87-6.13-2.75-12.8-4.5-20.02-5.27-7.13-2.22-13.47-4.53-14.06-13.06v-5c.76-8.35,9.53-8.63,16.19-7.83-2.35-9.74-4.12-23.46,9.5-24.32-7.63-21.21,9.12-28.7,23.24-13.02,1.45-7.19,4.29-13.63,8.5-19.31l4.56-1.52h3ZM56,29.99c9.89-2.62,15.07-11.49,7.49-19.99l-7.49,19.99ZM90,17c-8.51-1.41-14.72,4.43-13.99,13,1.58-1.84,13.41-7.47,13.83-8.16.64-1.06-.02-3.45.17-4.84ZM45.99,42.99c1.16-9.65-3.21-20.88-13.99-21.99.81,8.61,5.11,19.11,13.99,21.99ZM84,34.99c2.78.45,17.79-1.79,16.98-5.46-1.39-6.34-14.89,2.34-16.98,5.46ZM67.99,32c-8.83,3.05-15.77,9.36-16.99,18.99l16.78-13.2.21-5.79ZM30.99,67c-.26-5.91-.69-13.17-2.71-18.78-.75-2.09-1.34-5.53-4.27-5.22-2.97,2.17,2.31,21.87,6.98,23.99ZM41.99,85c-.58-9.49,3.68-23.49,1.98-32.47-.63-3.34-7.53-6.77-9.96-9.53,3.36,10.66,3.9,21.14,2.16,32.24l5.82,9.75ZM69.99,62c-3.27-3.21-5.94,8.74-4.98,11,2.93-.58,6.38-9.63,4.98-11ZM29,78.99c-1.93-10.47-12.81-12.65-21.99-11.99-.58,5.59,20.4,13.46,21.99,11.99ZM72.01,79c3.39-.75,14.97-4.32,12.54-9-3.8-7.33-12.37,4.25-12.54,9Z"/>
  <path class="st0" d="M325.99,74.01c1.15,6.06-5.09,11.2-5.93,16.56-1.84,11.67,6.19,7.12,12.25,3.25,7.68-4.9,21.9-22.66,30.19-22.67,9.61-.01,7.01,9.77,2.14,14.5-4.33,4.2-8.98,3.51-14.64,4.37,1.17,12.86,14.2,7.87,21.92,3.41,4.18-2.41,20.1-14.89,21.07-18.93.15-.6-6.4-1.16-2.48-10.48,7.67-18.27,29.8-7.33,11.56,8.62-.41,2.33,3.28,2.83,3.71,3.58,3.01,5.11-10.41,19.4-4.85,23.37s21.89-10.4,26.08-14.06c3.76-3.28,7.75-10.06,13-10-5.6,9.49-29.39,31.99-40.77,26.75-7.45-3.43-.53-17.97,2.78-22.74-8.03-5.68-7.73-.03-12.03,3.98-8.54,7.97-27.01,22.73-39.23,17.24-5.55-2.5-4.95-8.59-4.78-13.73-7.57,4.64-13.44,14.77-23.48,14.07-11.52-.81-6.25-11.11-4.02-18.08-7,4.47-12.88,10.78-20.19,14.81-16.34,9.03-26.35,5.63-22.31-14.8-10.78,9.94-40.16,32.88-45.49,7-6.08,4.43-11.08,12.05-19.11,12.93-11.74,1.29-13.03-9.97-11.4-18.93-1.73-.45-2,.72-3,1.49-6.91,5.32-19.86,20.68-29.73,14.74-5.36-3.23-1.86-9.26-2.27-14.23-5.94,3.77-19.46,18.31-26.73,15.35-3.14-1.28-2.51-8.67-1.79-11.39,2.19-8.21,16.09-17.26,24.29-17.74,4.54-.26,8.61,4.4,14.24,1.78,1.06,6.59-5.21,11.1-6.55,16.93-1.07,4.66-1.41,6.96,4.05,6.86,8.19-.15,26.41-16.9,30.92-23.88,2.95-4.57,11.27-21.56,11.6-26.41.17-2.5-.22-1.08-1.04-1.05-2.43.09-22.02,3.7-21.96.04.08-4.65,19.97-1.22,23.96-3.02,5.29-2.38,8.46-21.1,15.51-23.49,2.62,3.53-10.51,22.25-9.49,23,5.96.75,13.05-1.89,18.75-1.8,1.35.02,2.55.97,2.24,2.29-6.04,5.57-18.17-.74-23.47,5.54-1.8,2.13-5.26,10.2-6.7,13.3-2.6,5.57-14.63,33.62-6.16,36.51,15.33,5.23,28.96-26.99,40.82-27.35,11.68-.35,6.63,13.66-.73,16.76-3.46,1.46-16.24.51-10.43,7.46,8.49,10.16,33.35-10.55,39.2-17.69,7.9-9.65,12.29-23.14,19.07-33.93,6.28-9.99,28.63-39.2,39.98-41.01,12.53-2,11.53,6.83,8.94,15.93-4.31,15.18-25.24,34.31-38.37,42.63-12.07,7.64-25.37,9.13-26.14,26.91-.75,17.34,13.92,8.97,22.32,3.27,6.34-4.3,15.26-14.05,21.12-16.88,1.21-.59,2.03-1.28,3.56-.93ZM287.01,68c17.97-8.95,35.39-20.91,46.81-37.68,8.24-12.11,14.33-34.27-7.14-18.14-17.11,12.85-30.94,36.61-39.66,55.83ZM404.99,58c-5.29-1.82-14.94,9.59-10.56,13.09,5.27,4.2,11.76-8.65,10.56-13.09ZM247.71,75.15c-3.66.19-7.62,3.84-8.92,7.14-.54,1.36-1.48,2.01.18,3.23,7.12,4.49,15.15-10.71,8.74-10.38ZM364.99,75c-4.35-1.34-14.52,6.69-11.54,11.04,2.69,3.93,14.21-6.22,11.54-11.04ZM140,98c5.83,2.1,26.9-17.1,25.55-20.02-4.09-8.89-30.02,10.52-25.55,20.02Z"/>
  <path class="st0" d="M604,83c-7.05,5.99-22.65,23.31-32.74,17.23-5.7-3.43-1.22-9.36-2.76-14.23-4.67,3.77-18.65,17.14-24.54,15.57-4.77-1.27-3.53-4.72-3.98-8.09-.13-.99.31-2.18-1.47-1.48-5.05,1.97-16.33,17.52-24.09,9.06-7.15-7.79,5.94-22.73,3.57-25.07-8.61-3.22-22.53,19.75-27.47,19-1.87-.28-.97-1.82-.8-2.75.77-4.12,4.49-8.03,5.19-12.84.21-1.42.84-4.07-1.39-3.39-2.06.63-10.09,7.11-12.05,8.96-3.28,3.1-8.72,11.79-10.92,13.08-5.55,3.25-5.04-.37-3.87-4.87.66-2.52,6.1-17,7.21-18.59.7-1,4.28-1.65,4.14.92-.25,4.72-5.27,8.6-4.54,13.48,5.63-4.56,14.37-17.46,22.01-17.09,6.07.29,3.35,7.29,3,11.11,5.8-2.35,14.43-14.05,21.49-10.53s-7.89,20.32-3.56,26.58c2.75,3.97,14.04-4.3,16.87-6.24,9.33-6.4,20.75-21.91,32.19-20.86,3.56.33,5.32,3.21,7.91,3.07,2.29-.12,5.28-3.96,5.64.48.3,3.66-14.98,25.15-.8,22.31,6.12-1.23,24.8-17.01,28.74-22.31,2.07-2.78,13.28-27.26,12-28.49-7.31-.92-15.1,3.29-21.99-.5,6.16-5.75,17.3.26,23.96-4.04,4.84-3.13,9.97-21.67,12.54-22.48.55-.17,2.41-.31,2.51.53.58,5.09-8.28,17-10.01,22.48,6.17.46,12.38-1.62,18.5-1.43,1.03.03,4.43.03,3.49,1.92-.79,1.58-13.08,3.13-15.6,3.41-3.52.38-4.98-2.58-8.85,2.15-3.71,4.53-13.84,29.49-15.26,35.74-5.35,23.54,13.35,14.12,23.26,4.26,3.75-3.73,6.66-9.55,10.99-13.01,15.02-12.04,22.01,4.46,9.18,11.18-3.91,2.05-16.02,1.78-11.8,8.11,1.01,1.51,6.61,2.75,8.54,2.72,12.85-.21,23.58-15.09,33.54-21.05.29-2.46-2.45-2.81-2.98-5.51-1.69-8.64,8.31-20.22,16.99-15.98,7.56,3.7-5.03,16.79-3.79,19.32.28.58,3.32.56,2.78,5.59-.46,4.23-11.79,18.02-2.27,19.4,11.54,1.67,31.32-25.32,35.93-25.69,1.4-.11,2.32.8,2.21,2.21-.26,3.09-12.7,20.82-3.31,21.7,1.97.18,7.85-3.01,9.78-4.2,10.4-6.42,19.95-24.18,33.94-21.6,4.25.78,6.15,4.33,11.73,1.78,1.39,5.51-2.5,8.08-4.19,12.3-7.4,18.42,8.98,10.42,17.11,4.11,3.68-2.86,13.67-14.91,16.58-15.43,3.77-.68-.03,4.84-.97,6.03-3.15,3.97-18.21,15.83-22.83,18.17-13.44,6.79-18.18-1.18-14.69-14.18-4.91,3.84-18.7,18.33-25.03,16.59-4.01-1.1-4.27-6.18-3.97-9.59-5.4,4.32-16.35,13.22-23.31,8.06-4.3-3.18.49-10.96-.18-15.06-4.94,6.53-35.69,30.3-36.45,10.4-.18-4.71,7.81-16.07,4.99-17.95-5.53-3.7-15.03,9.75-19.03,13.06-9.93,8.21-33.62,20.59-36.02-.51-6.41,5.45-13.83,14.06-23.22,12.8-2.22-.3-7.77-2.82-7.77-5.31v-14.5ZM683,72c7.56,2.78,17.37-17.51,6.47-13.07-4.9,2-7.11,8.12-6.47,13.07ZM645.34,78.34c-6.71,6.7-2.48,12.26,5.69,5.19,8.23-7.1.78-11.66-5.69-5.19ZM564.82,76.21c-8.38.41-18.79,8.32-20.41,16.75-2.03,10.59,14.41-2.51,17.12-4.94,3.48-3.12,13.8-12.32,3.29-11.82ZM773.98,77.04c-11.37-2.99-26.68,8.49-24.97,20.96,2.84,2.8,21.86-13.12,23.86-16.63.78-1.36,1.41-2.71,1.11-4.33Z"/>
  <path class="st0" d="M328.07,61.92c-2.46-3.38,5.26-10.35,7.45-6.93,2.63,4.1-4.88,10.47-7.45,6.93Z"/>
  <path class="st0" d="M739.85,60.85c-1.17,1.88-9.3,2.1-6.37-3.86s9.42-1.04,6.37,3.86Z"/>
</svg>